<svg data-v-d3f97b9e="" xmlns="http://www.w3.org/2000/svg" viewBox="0 0 679 90"><!----><linearGradient data-v-d3f97b9e="" gradientTransform="rotate(25)" id="255c56b0-8366-477d-b1bf-d6c342314217" x1="0%" y1="0%" x2="100%" y2="0%"><stop data-v-d3f97b9e="" offset="0%" style="stop-color: rgb(240, 0, 121); stop-opacity: 1;"></stop><stop data-v-d3f97b9e="" offset="100%" style="stop-color: rgb(242, 160, 65); stop-opacity: 1;"></stop></linearGradient><!----><g data-v-d3f97b9e="" id="87748ec8-c93e-49f8-b2ac-8cc9c38535b6" fill="#ffffff" transform="matrix(4.983388720108072,0,0,4.983388720108072,159.8236046985253,-5.7308970285203245)"><path d="M1.61 10.50L0.29 10.50L0.29 1.33L1.68 1.33L3.44 6.12L3.56 6.12L5.32 1.33L6.71 1.33L6.71 10.50L5.39 10.50L5.43 4.30L5.38 4.30L4.19 7.39L2.81 7.39L1.62 4.30L1.57 4.30L1.61 10.50ZM10.02 9.30L10.02 9.30L10.02 9.30Q10.42 9.30 10.89 9.11L10.89 9.11L10.89 9.11Q11.37 8.93 11.65 8.71L11.65 8.71L11.65 7.73L11.65 7.73Q10.81 7.66 10.28 7.66L10.28 7.66L10.28 7.66Q9.11 7.66 9.11 8.53L9.11 8.53L9.11 8.53Q9.11 9.30 10.02 9.30ZM9.80 10.65L9.80 10.65L9.80 10.65Q7.56 10.65 7.56 8.53L7.56 8.53L7.56 8.53Q7.56 7.39 8.28 6.94L8.28 6.94L8.28 6.94Q9.00 6.48 10.28 6.48L10.28 6.48L10.28 6.48Q10.88 6.48 11.65 6.55L11.65 6.55L11.65 6.55Q11.65 5.71 11.41 5.40L11.41 5.40L11.41 5.40Q11.17 5.10 10.58 5.10L10.58 5.10L10.58 5.10Q10.00 5.10 9.21 5.24L9.21 5.24L9.21 5.24Q8.43 5.38 8.01 5.52L8.01 5.52L7.74 4.19L7.74 4.19Q9.21 3.74 10.61 3.74L10.61 3.74L10.61 3.74Q12.01 3.74 12.55 4.35L12.55 4.35L12.55 4.35Q13.09 4.97 13.09 6.44L13.09 6.44L13.09 9.28L13.24 10.51L11.80 10.65L11.66 10.01L11.66 10.01Q10.49 10.65 9.80 10.65ZM16.23 5.60L16.23 5.60L16.23 10.50L14.78 10.50L14.78 1.16L16.23 1.16L16.23 4.24L16.23 4.24Q17.36 3.74 18.00 3.74L18.00 3.74L18.00 3.74Q19.21 3.74 19.70 4.44L19.70 4.44L19.70 4.44Q20.20 5.14 20.20 6.48L20.20 6.48L20.20 10.50L18.76 10.50L18.76 6.45L18.76 6.45Q18.76 5.87 18.53 5.48L18.53 5.48L18.53 5.48Q18.30 5.10 17.92 5.10L17.92 5.10L17.92 5.10Q17.23 5.10 16.23 5.60ZM21.69 7.18L21.69 7.18Q21.69 5.49 22.44 4.61L22.44 4.61L22.44 4.61Q23.20 3.74 24.54 3.74L24.54 3.74L24.54 3.74Q25.89 3.74 26.62 4.53L26.62 4.53L26.62 4.53Q27.36 5.32 27.38 6.85L27.38 6.85L27.33 7.88L23.24 7.88L23.24 7.88Q23.37 9.39 24.75 9.39L24.75 9.39L24.75 9.39Q25.72 9.39 26.80 9.04L26.80 9.04L27.09 10.26L27.09 10.26Q26.64 10.42 25.93 10.54L25.93 10.54L25.93 10.54Q25.21 10.65 24.75 10.65L24.75 10.65L24.75 10.65Q21.69 10.65 21.69 7.18L21.69 7.18ZM24.60 5.04L24.60 5.04L24.60 5.04Q23.94 5.04 23.61 5.42L23.61 5.42L23.61 5.42Q23.28 5.81 23.24 6.71L23.24 6.71L25.83 6.71L25.83 6.71Q25.83 5.04 24.60 5.04ZM28.88 10.19L28.88 10.19L29.19 8.92L29.19 8.92Q30.52 9.34 31.30 9.34L31.30 9.34L31.30 9.34Q32.09 9.34 32.37 9.18L32.37 9.18L32.37 9.18Q32.65 9.04 32.65 8.68L32.65 8.68L32.65 8.68Q32.65 8.32 32.40 8.16L32.40 8.16L32.40 8.16Q32.14 8.01 31.44 7.84L31.44 7.84L31.44 7.84Q30.06 7.50 29.51 7.09L29.51 7.09L29.51 7.09Q28.97 6.68 28.97 5.74L28.97 5.74L28.97 5.74Q28.97 3.74 31.54 3.74L31.54 3.74L31.54 3.74Q32.65 3.74 34.10 4.10L34.10 4.10L33.84 5.43L33.84 5.43Q32.45 5.04 31.70 5.04L31.70 5.04L31.70 5.04Q30.94 5.04 30.68 5.17L30.68 5.17L30.68 5.17Q30.42 5.31 30.42 5.63L30.42 5.63L30.42 5.63Q30.42 5.95 30.68 6.10L30.68 6.10L30.68 6.10Q30.94 6.24 32.02 6.54L32.02 6.54L32.02 6.54Q33.10 6.83 33.60 7.22L33.60 7.22L33.60 7.22Q34.10 7.60 34.10 8.53L34.10 8.53L34.10 8.53Q34.10 10.64 31.50 10.64L31.50 10.64L31.50 10.64Q30.28 10.64 28.88 10.19ZM37.23 5.60L37.23 5.60L37.23 10.50L35.78 10.50L35.78 1.16L37.23 1.16L37.23 4.24L37.23 4.24Q38.36 3.74 39.00 3.74L39.00 3.74L39.00 3.74Q40.21 3.74 40.70 4.44L40.70 4.44L40.70 4.44Q41.20 5.14 41.20 6.48L41.20 6.48L41.20 10.50L39.76 10.50L39.76 6.45L39.76 6.45Q39.76 5.87 39.53 5.48L39.53 5.48L39.53 5.48Q39.30 5.10 38.92 5.10L38.92 5.10L38.92 5.10Q38.23 5.10 37.23 5.60ZM49.59 3.78L49.59 3.78L49.59 3.78Q49.59 1.19 52.70 1.19L52.70 1.19L52.70 1.19Q53.79 1.19 55.19 1.68L55.19 1.68L54.87 2.95L54.87 2.95Q53.44 2.51 52.62 2.50L52.62 2.50L52.62 2.50Q51.80 2.49 51.44 2.77L51.44 2.77L51.44 2.77Q51.07 3.05 51.07 3.75L51.07 3.75L51.07 3.75Q51.07 4.23 51.48 4.56L51.48 4.56L51.48 4.56Q51.88 4.89 52.85 5.14L52.85 5.14L52.85 5.14Q54.32 5.53 54.87 6.15L54.87 6.15L54.87 6.15Q55.41 6.76 55.41 7.98L55.41 7.98L55.41 7.98Q55.41 10.63 52.25 10.63L52.25 10.63L52.25 10.63Q51.20 10.63 49.60 10.18L49.60 10.18L49.90 8.85L49.90 8.85Q49.90 8.86 50.33 8.97L50.33 8.97L50.33 8.97Q51.69 9.32 52.44 9.32L52.44 9.32L52.44 9.32Q53.19 9.32 53.56 8.95L53.56 8.95L53.56 8.95Q53.93 8.57 53.93 7.99L53.93 7.99L53.93 7.99Q53.93 7.42 53.61 7.11L53.61 7.11L53.61 7.11Q53.30 6.80 52.46 6.57L52.46 6.57L52.46 6.57Q50.95 6.15 50.27 5.53L50.27 5.53L50.27 5.53Q49.59 4.91 49.59 3.78ZM57.30 4.58L57.30 4.58L57.30 4.58Q58.02 3.74 59.50 3.74L59.50 3.74L59.50 3.74Q60.98 3.74 61.70 4.58L61.70 4.58L61.70 4.58Q62.41 5.43 62.41 7.20L62.41 7.20L62.41 7.20Q62.41 8.96 61.70 9.82L61.70 9.82L61.70 9.82Q60.98 10.68 59.50 10.68L59.50 10.68L59.50 10.68Q58.02 10.68 57.30 9.82L57.30 9.82L57.30 9.82Q56.59 8.96 56.59 7.20L56.59 7.20L56.59 7.20Q56.59 5.43 57.30 4.58ZM58.43 5.59L58.43 5.59L58.43 5.59Q58.14 6.08 58.14 7.20L58.14 7.20L58.14 7.20Q58.14 8.32 58.44 8.82L58.44 8.82L58.44 8.82Q58.73 9.32 59.50 9.32L59.50 9.32L59.50 9.32Q60.27 9.32 60.56 8.82L60.56 8.82L60.56 8.82Q60.86 8.32 60.86 7.20L60.86 7.20L60.86 7.20Q60.86 6.08 60.57 5.59L60.57 5.59L60.57 5.59Q60.28 5.10 59.50 5.10L59.50 5.10L59.50 5.10Q58.72 5.10 58.43 5.59ZM63.32 3.85L64.69 3.85L64.74 4.23L64.74 4.23Q65.27 3.74 65.77 3.74L65.77 3.74L65.77 3.74Q66.49 3.74 66.85 4.27L66.85 4.27L66.85 4.27Q67.58 3.74 68.14 3.74L68.14 3.74L68.14 3.74Q68.98 3.74 69.33 4.23L69.33 4.23L69.33 4.23Q69.69 4.72 69.69 6.05L69.69 6.05L69.69 10.50L68.26 10.50L68.26 6.66L68.26 6.66Q68.26 5.38 68.04 5.18L68.04 5.18L68.04 5.18Q67.93 5.07 67.72 5.07L67.72 5.07L67.72 5.07Q67.51 5.07 67.19 5.35L67.19 5.35L67.19 5.35Q67.26 5.67 67.26 6.66L67.26 6.66L67.26 8.22L65.84 8.22L65.84 6.66L65.84 6.66Q65.84 5.39 65.69 5.18L65.69 5.18L65.69 5.18Q65.60 5.07 65.40 5.07L65.40 5.07L65.40 5.07Q65.20 5.07 64.79 5.38L64.79 5.38L64.79 10.50L63.32 10.50L63.32 3.85ZM72.24 13.19L70.80 13.19L70.80 5.05L70.71 3.85L72.11 3.75L72.20 4.37L72.20 4.37Q73.14 3.74 73.86 3.74L73.86 3.74L73.86 3.74Q75.28 3.74 75.94 4.57L75.94 4.57L75.94 4.57Q76.61 5.40 76.61 7.17L76.61 7.17L76.61 7.17Q76.61 8.93 75.80 9.79L75.80 9.79L75.80 9.79Q74.98 10.65 73.49 10.65L73.49 10.65L73.49 10.65Q72.98 10.65 72.24 10.36L72.24 10.36L72.24 13.19ZM73.81 5.08L73.81 5.08L73.81 5.08Q73.16 5.08 72.24 5.70L72.24 5.70L72.24 9.03L72.24 9.03Q72.91 9.32 73.46 9.32L73.46 9.32L73.46 9.32Q75.05 9.32 75.05 7.20L75.05 7.20L75.05 7.20Q75.05 5.07 73.81 5.08ZM80.02 9.30L80.02 9.30L80.02 9.30Q80.42 9.30 80.89 9.11L80.89 9.11L80.89 9.11Q81.37 8.93 81.65 8.71L81.65 8.71L81.65 7.73L81.65 7.73Q80.81 7.66 80.28 7.66L80.28 7.66L80.28 7.66Q79.11 7.66 79.11 8.53L79.11 8.53L79.11 8.53Q79.11 9.30 80.02 9.30ZM79.80 10.65L79.80 10.65L79.80 10.65Q77.56 10.65 77.56 8.53L77.56 8.53L77.56 8.53Q77.56 7.39 78.28 6.94L78.28 6.94L78.28 6.94Q79.00 6.48 80.28 6.48L80.28 6.48L80.28 6.48Q80.88 6.48 81.65 6.55L81.65 6.55L81.65 6.55Q81.65 5.71 81.41 5.40L81.41 5.40L81.41 5.40Q81.17 5.10 80.58 5.10L80.58 5.10L80.58 5.10Q80.00 5.10 79.21 5.24L79.21 5.24L79.21 5.24Q78.43 5.38 78.01 5.52L78.01 5.52L77.74 4.19L77.74 4.19Q79.21 3.74 80.61 3.74L80.61 3.74L80.61 3.74Q82.01 3.74 82.55 4.35L82.55 4.35L82.55 4.35Q83.09 4.97 83.09 6.44L83.09 6.44L83.09 9.28L83.24 10.51L81.80 10.65L81.66 10.01L81.66 10.01Q80.49 10.65 79.80 10.65ZM86.91 2.44L85.39 2.45L85.37 1.18L88.35 1.16L88.35 9.24L89.92 9.24L89.92 10.50L85.33 10.50L85.33 9.24L86.91 9.24L86.91 2.44ZM93.91 2.44L92.39 2.45L92.37 1.18L95.35 1.16L95.35 9.24L96.92 9.24L96.92 10.50L92.33 10.50L92.33 9.24L93.91 9.24L93.91 2.44ZM101.00 5.17L99.44 5.17L99.44 3.88L102.44 3.88L102.44 9.21L103.99 9.21L103.99 10.50L99.33 10.50L99.33 9.21L101.00 9.21L101.00 5.17ZM101.04 2.65L101.04 2.65L101.04 2.65Q100.77 2.38 100.77 2.02L100.77 2.02L100.77 2.02Q100.77 1.65 101.02 1.40L101.02 1.40L101.02 1.40Q101.28 1.15 101.64 1.15L101.64 1.15L101.64 1.15Q102.00 1.15 102.26 1.39L102.26 1.39L102.26 1.39Q102.51 1.64 102.51 2.02L102.51 2.02L102.51 2.02Q102.51 2.39 102.26 2.66L102.26 2.66L102.26 2.66Q102.00 2.93 101.65 2.93L101.65 2.93L101.65 2.93Q101.30 2.93 101.04 2.65Z"></path></g><!----><g data-v-d3f97b9e="" id="5e7a1324-5f83-4424-af2f-455e47c6d050" transform="matrix(1.717983560253717,0,0,1.717983560253717,-15.231362720826098,-26.20987863543067)" stroke="none" fill="#ffffff"><path d="M50.834 29.662h.006a1.737 1.737 0 0 0 1.731-1.744l-.042-10.574a1.738 1.738 0 0 0-1.738-1.731h-.007a1.737 1.737 0 0 0-1.73 1.745l.042 10.574c.004.957.781 1.73 1.738 1.73zM29.204 37.355a1.735 1.735 0 1 0 2.49-2.424l-7.377-7.578a1.738 1.738 0 0 0-2.489 2.425l7.376 7.577zM77.348 58.215c-.03.96.724 1.762 1.683 1.791l10.568.326h.055a1.737 1.737 0 0 0 .053-3.475l-10.569-.326a1.72 1.72 0 0 0-1.79 1.684zM10.873 57.627l10.568.326h.056a1.738 1.738 0 0 0 .051-3.475l-10.568-.326c-.994-.035-1.762.725-1.791 1.684s.725 1.761 1.684 1.791zM71.852 40.086c.416 0 .834-.148 1.167-.451l7.829-7.108c.71-.645.764-1.744.117-2.454a1.735 1.735 0 0 0-2.453-.118l-7.83 7.108a1.735 1.735 0 0 0-.117 2.453c.341.379.813.57 1.287.57z"></path><path d="M89.652 64.524H70.556a21.003 21.003 0 0 0-2.341-19.103 21.047 21.047 0 0 0-17.42-9.211c-4.225 0-8.311 1.26-11.817 3.645-8.097 5.506-11.208 15.721-7.891 24.669H10.926c-.959 0-1.736.778-1.736 1.738S9.967 68 10.926 68h78.727a1.739 1.739 0 0 0-.001-3.476z"></path></g><!----><g data-v-d3f97b9e="" id="da8be62b-8da6-4c4c-a542-b51f6d01e4af" fill="#ffffff" transform="matrix(2.204446682595988,0,0,2.204446682595988,158.0503022730606,51.97581438980954)"><path d="M7.39 13.02L4.00 8.04L2.16 9.91L2.16 13.02L1.46 13.02L1.46 3.78L2.16 3.78L2.16 8.96L7.22 3.78L8.15 3.78L4.49 7.52L8.25 13.02L7.39 13.02ZM17.70 12.38L23.53 12.38L23.53 13.02L17.00 13.02L17.00 3.78L23.31 3.78L23.31 4.42L17.70 4.42L17.70 7.99L22.13 7.99L22.13 8.65L17.70 8.65L17.70 12.38ZM33.26 12.38L39.10 12.38L39.10 13.02L32.56 13.02L32.56 3.78L38.88 3.78L38.88 4.42L33.26 4.42L33.26 7.99L37.70 7.99L37.70 8.65L33.26 8.65L33.26 12.38ZM51.20 3.78L51.20 3.78Q52.64 3.78 53.49 4.50L53.49 4.50L53.49 4.50Q54.33 5.22 54.33 6.48L54.33 6.48L54.33 6.48Q54.33 7.74 53.49 8.47L53.49 8.47L53.49 8.47Q52.64 9.20 51.20 9.20L51.20 9.20L48.83 9.20L48.83 13.02L48.13 13.02L48.13 3.78L51.20 3.78ZM51.11 8.54L51.11 8.54Q52.32 8.54 52.95 8.01L52.95 8.01L52.95 8.01Q53.59 7.48 53.59 6.48L53.59 6.48L53.59 6.48Q53.59 5.50 52.95 4.96L52.95 4.96L52.95 4.96Q52.32 4.42 51.11 4.42L51.11 4.42L48.83 4.42L48.83 8.54L51.11 8.54ZM75.43 12.38L80.98 12.38L80.98 13.02L74.73 13.02L74.73 3.78L75.43 3.78L75.43 12.38ZM90.44 12.38L96.28 12.38L96.28 13.02L89.74 13.02L89.74 3.78L96.05 3.78L96.05 4.42L90.44 4.42L90.44 7.99L94.88 7.99L94.88 8.65L90.44 8.65L90.44 12.38ZM111.59 13.02L110.43 10.12L106.01 10.12L104.86 13.02L104.12 13.02L107.81 3.78L108.64 3.78L112.34 13.02L111.59 13.02ZM106.27 9.48L110.18 9.48L108.57 5.45L108.23 4.47L108.22 4.47L107.88 5.42L106.27 9.48ZM128.00 13.02L127.18 13.02L124.53 9.02L124.49 9.02L121.76 9.02L121.76 13.02L121.06 13.02L121.06 3.78L124.49 3.78L124.49 3.78Q125.87 3.78 126.69 4.48L126.69 4.48L126.69 4.48Q127.51 5.18 127.51 6.40L127.51 6.40L127.51 6.40Q127.51 7.41 126.92 8.07L126.92 8.07L126.92 8.07Q126.34 8.74 125.31 8.93L125.31 8.93L128.00 13.02ZM121.76 4.42L121.76 8.36L124.47 8.36L124.47 8.36Q125.59 8.36 126.19 7.85L126.19 7.85L126.19 7.85Q126.78 7.35 126.78 6.40L126.78 6.40L126.78 6.40Q126.78 5.45 126.19 4.93L126.19 4.93L126.19 4.93Q125.59 4.42 124.47 4.42L124.47 4.42L121.76 4.42ZM144.12 3.78L144.12 13.02L143.25 13.02L138.35 5.77L137.66 4.54L137.65 4.54L137.69 5.70L137.69 13.02L137.02 13.02L137.02 3.78L137.90 3.78L142.79 11.02L143.49 12.26L143.46 11.10L143.46 3.78L144.12 3.78ZM154.73 3.78L154.73 13.02L154.03 13.02L154.03 3.78L154.73 3.78ZM171.74 3.78L171.74 13.02L170.87 13.02L165.97 5.77L165.28 4.54L165.27 4.54L165.31 5.70L165.31 13.02L164.64 13.02L164.64 3.78L165.52 3.78L170.41 11.02L171.11 12.26L171.08 11.10L171.08 3.78L171.74 3.78ZM185.21 8.50L189 8.50L189 13.02L188.44 13.02L188.41 11.41L188.41 11.41Q188.03 12.25 187.23 12.71L187.23 12.71L187.23 12.71Q186.42 13.16 185.23 13.16L185.23 13.16L185.23 13.16Q183.97 13.16 183.03 12.58L183.03 12.58L183.03 12.58Q182.08 12.00 181.57 10.92L181.57 10.92L181.57 10.92Q181.06 9.84 181.06 8.40L181.06 8.40L181.06 8.40Q181.06 6.96 181.59 5.88L181.59 5.88L181.59 5.88Q182.11 4.80 183.06 4.22L183.06 4.22L183.06 4.22Q184.02 3.64 185.28 3.64L185.28 3.64L185.28 3.64Q186.69 3.64 187.59 4.20L187.59 4.20L187.59 4.20Q188.48 4.76 188.93 5.91L188.93 5.91L188.29 6.24L188.29 6.24Q187.96 5.28 187.20 4.78L187.20 4.78L187.20 4.78Q186.44 4.28 185.28 4.28L185.28 4.28L185.28 4.28Q184.24 4.28 183.46 4.78L183.46 4.78L183.46 4.78Q182.67 5.28 182.24 6.21L182.24 6.21L182.24 6.21Q181.80 7.14 181.80 8.40L181.80 8.40L181.80 8.40Q181.80 10.32 182.72 11.42L182.72 11.42L182.72 11.42Q183.64 12.52 185.26 12.52L185.26 12.52L185.26 12.52Q186.27 12.52 186.97 12.12L186.97 12.12L186.97 12.12Q187.67 11.72 188.01 11.07L188.01 11.07L188.01 11.07Q188.34 10.42 188.34 9.67L188.34 9.67L188.34 9.16L185.21 9.16L185.21 8.50Z"></path></g></svg>