<svg data-v-d3f97b9e="" xmlns="http://www.w3.org/2000/svg" viewBox="0 0 94.17918978292845 60"><!----><!----><!----><!----><g data-v-d3f97b9e="" id="31dae886-9f67-4e31-acc9-568fa3a8930f" transform="matrix(1.145322373502478,0,0,1.145322373502478,-10.52344124880024,-17.881920305903975)" stroke="none" fill="white"><path d="M50.834 29.662h.006a1.737 1.737 0 0 0 1.731-1.744l-.042-10.574a1.738 1.738 0 0 0-1.738-1.731h-.007a1.737 1.737 0 0 0-1.73 1.745l.042 10.574c.004.957.781 1.73 1.738 1.73zM29.204 37.355a1.735 1.735 0 1 0 2.49-2.424l-7.377-7.578a1.738 1.738 0 0 0-2.489 2.425l7.376 7.577zM77.348 58.215c-.03.96.724 1.762 1.683 1.791l10.568.326h.055a1.737 1.737 0 0 0 .053-3.475l-10.569-.326a1.72 1.72 0 0 0-1.79 1.684zM10.873 57.627l10.568.326h.056a1.738 1.738 0 0 0 .051-3.475l-10.568-.326c-.994-.035-1.762.725-1.791 1.684s.725 1.761 1.684 1.791zM71.852 40.086c.416 0 .834-.148 1.167-.451l7.829-7.108c.71-.645.764-1.744.117-2.454a1.735 1.735 0 0 0-2.453-.118l-7.83 7.108a1.735 1.735 0 0 0-.117 2.453c.341.379.813.57 1.287.57z"></path><path d="M89.652 64.524H70.556a21.003 21.003 0 0 0-2.341-19.103 21.047 21.047 0 0 0-17.42-9.211c-4.225 0-8.311 1.26-11.817 3.645-8.097 5.506-11.208 15.721-7.891 24.669H10.926c-.959 0-1.736.778-1.736 1.738S9.967 68 10.926 68h78.727a1.739 1.739 0 0 0-.001-3.476z"></path></g><!----></svg>